<svg width="19" height="19" viewBox="0 0 19 19" fill="none" xmlns="http://www.w3.org/2000/svg">
<path d="M19.0011 9.49765C19.0011 9.54424 19.0011 9.589 19.0011 9.63651C18.97 10.9392 18.4868 12.4209 16.4433 12.4209C14.3294 12.4209 13.8854 10.8314 13.8854 9.49765V5.8436C13.8856 5.74341 13.8653 5.64425 13.8255 5.55227C13.7858 5.4603 13.7276 5.37747 13.6545 5.30893C13.5815 5.2404 13.4951 5.18762 13.4007 5.15388C13.3064 5.12013 13.2062 5.10615 13.1062 5.11278C12.9179 5.12895 12.7428 5.21591 12.6162 5.35611C12.4895 5.49632 12.4208 5.67935 12.4238 5.86826V6.23366C11.764 5.64237 10.9407 5.2648 10.0621 5.15067C9.18356 5.03654 8.29104 5.19121 7.50212 5.59432C6.7132 5.99742 6.0649 6.63004 5.64259 7.40885C5.22029 8.18766 5.04381 9.07613 5.13639 9.95721C5.22896 10.8383 5.58627 11.6707 6.16122 12.3447C6.73618 13.0187 7.50182 13.5028 8.3573 13.7331C9.21277 13.9634 10.1179 13.9292 10.9536 13.635C11.7892 13.3407 12.5162 12.8002 13.0386 12.0847C13.1299 12.2445 13.2331 12.3972 13.3474 12.5415C13.8379 13.1517 14.7724 13.8825 16.4433 13.8825C16.7254 13.8835 17.0072 13.8605 17.2855 13.814C17.3543 13.8025 17.425 13.811 17.4891 13.8384C17.5533 13.8658 17.6083 13.911 17.6475 13.9686C17.6868 14.0263 17.7088 14.0939 17.7109 14.1637C17.7129 14.2334 17.695 14.3023 17.6591 14.3621C16.8002 15.8029 15.5754 16.9907 14.1089 17.8049C12.6425 18.6192 10.9866 19.0309 9.30962 18.9982C4.30539 18.8977 0.200973 14.8746 0.00730804 9.87311C-0.0422272 8.61089 0.160446 7.35147 0.603471 6.16852C1.0465 4.98557 1.72098 3.90284 2.58745 2.98368C3.45393 2.06452 4.49501 1.32738 5.64979 0.815385C6.80456 0.30339 8.04984 0.0268205 9.31278 0.00185572C10.5757 -0.0231091 11.831 0.204032 13.0051 0.669992C14.1792 1.13595 15.2486 1.83137 16.1507 2.71557C17.0528 3.59977 17.7696 4.655 18.259 5.81952C18.7484 6.98404 19.0007 8.23446 19.0011 9.49765ZM6.5773 9.49765C6.5773 10.0758 6.74875 10.641 7.06996 11.1217C7.39117 11.6024 7.84771 11.9771 8.38187 12.1984C8.91602 12.4196 9.50379 12.4775 10.0708 12.3647C10.6379 12.2519 11.1588 11.9735 11.5676 11.5647C11.9764 11.1559 12.2548 10.635 12.3676 10.0679C12.4804 9.50089 12.4225 8.91313 12.2013 8.37897C11.98 7.84482 11.6053 7.38827 11.1246 7.06706C10.6439 6.74585 10.0787 6.57441 9.50055 6.57441C8.72525 6.57441 7.98171 6.88239 7.4335 7.4306C6.88528 7.97882 6.5773 8.72236 6.5773 9.49765Z" fill="#F4F7F5"/>
</svg>
